<svg xmlns="http://www.w3.org/2000/svg" width="137.447" height="141.512" viewBox="0 0 137.447 141.512">
  <g id="Grupo_878914" data-name="Grupo 878914" transform="translate(-1197.553 -3679.551)">
    <g id="Grupo_875270" data-name="Grupo 875270" transform="translate(1197.554 3679.551)">
      <g id="Grupo_875247" data-name="Grupo 875247" transform="translate(0 0)">
        <path id="Trazado_612474" data-name="Trazado 612474" d="M653.742,232.072c15.678-34.01,53.909-51.038,89.473-38.767.72.221,2.707,1.009,3.452,1.305.645.225,1.628.673,2.262.97l2.237,1.031c1.065.494,2.211,1.194,3.269,1.726,1.256.669,3.012,1.8,4.232,2.534.611.413,2.4,1.668,3.047,2.106a70.941,70.941,0,0,1,25.628,79.97c-.306.763-.989,2.8-1.309,3.546-.246.567-.734,1.752-.98,2.322-.335.888-1.219,2.559-1.609,3.423-.512,1.063-1.237,2.289-1.787,3.334-.46.845-1.482,2.407-1.963,3.236-.477.64-1.65,2.494-2.144,3.12-.38.484-1.152,1.518-1.533,2.005-1.2,1.53-2.769,3.378-4.116,4.777-15.965,17.332-41.011,25.581-64.1,20.783a1.984,1.984,0,0,1,.6-3.917,74.592,74.592,0,0,0,18.7-.143c.818-.116,2.669-.447,3.447-.559.652-.157,2.709-.584,3.407-.745,2.439-.617,4.84-1.369,7.218-2.183,1.231-.506,2.551-.977,3.767-1.5.753-.333,2.436-1.142,3.152-1.46a68.275,68.275,0,0,0,14.385-9.62c1-.825,2.473-2.2,3.41-3.127.466-.413,1.166-1.2,1.609-1.661,23.293-24.352,24.525-63.678,2.628-89.421-27.081-32.429-77.857-31.7-103.635,1.969A63.009,63.009,0,0,0,657.4,233.6a1.984,1.984,0,1,1-3.661-1.524Z" transform="translate(-653.555 -189.329)" fill="#fda829"/>
      </g>
      <g id="Grupo_875248" data-name="Grupo 875248" transform="translate(8.282 12.934)">
        <ellipse id="Elipse_4837" data-name="Elipse 4837" cx="57.268" cy="57.268" rx="57.268" ry="57.268" fill="#148d80"/>
      </g>
      <g id="Grupo_875258" data-name="Grupo 875258" transform="translate(26.451 31.987)">
        <g id="Grupo_875249" data-name="Grupo 875249">
          <path id="Trazado_612475" data-name="Trazado 612475" d="M756.074,291.3H708.76a13.634,13.634,0,0,1,0-27.268h.167A10.9,10.9,0,0,1,720,254.053a18.452,18.452,0,0,1,36.424,2.75,17.248,17.248,0,0,1-.346,34.493ZM708.76,267.21a10.452,10.452,0,0,0,0,20.9h47.314a14.067,14.067,0,1,0,0-28.133c-.37,0-.737.023-1.1.048a1.591,1.591,0,0,1-1.7-1.61l.011-.37a15.27,15.27,0,0,0-30.4-2.069,1.59,1.59,0,0,1-1.84,1.356,7.707,7.707,0,0,0-8.971,7.592c0,.23.012.454.032.676a1.591,1.591,0,0,1-1.813,1.717A10.7,10.7,0,0,0,708.76,267.21Z" transform="translate(-695.126 -239.598)" fill="#fff"/>
        </g>
        <g id="Grupo_875257" data-name="Grupo 875257" transform="translate(13.169 55.82)">
          <g id="Grupo_875253" data-name="Grupo 875253">
            <g id="Grupo_875250" data-name="Grupo 875250">
              <path id="Trazado_612476" data-name="Trazado 612476" d="M717.411,337.414a1.592,1.592,0,0,1-1.337-2.451l4.437-6.908a1.591,1.591,0,0,1,2.677,1.719l-4.437,6.908A1.589,1.589,0,0,1,717.411,337.414Z" transform="translate(-715.821 -327.324)" fill="#fff"/>
            </g>
            <g id="Grupo_875251" data-name="Grupo 875251" transform="translate(18.554 0.001)">
              <path id="Trazado_612477" data-name="Trazado 612477" d="M746.57,337.414a1.591,1.591,0,0,1-1.338-2.45l4.434-6.908a1.591,1.591,0,1,1,2.678,1.719l-4.434,6.908A1.592,1.592,0,0,1,746.57,337.414Z" transform="translate(-744.981 -327.325)" fill="#fff"/>
            </g>
            <g id="Grupo_875252" data-name="Grupo 875252" transform="translate(37.107 0.001)">
              <path id="Trazado_612478" data-name="Trazado 612478" d="M775.727,337.414a1.591,1.591,0,0,1-1.337-2.45l4.434-6.908a1.591,1.591,0,1,1,2.678,1.719l-4.434,6.908A1.592,1.592,0,0,1,775.727,337.414Z" transform="translate(-774.137 -327.325)" fill="#fff"/>
            </g>
          </g>
          <g id="Grupo_875256" data-name="Grupo 875256" transform="translate(4.931 10.521)">
            <g id="Grupo_875254" data-name="Grupo 875254">
              <path id="Trazado_612479" data-name="Trazado 612479" d="M725.161,353.947a1.591,1.591,0,0,1-1.337-2.45l4.437-6.907a1.591,1.591,0,0,1,2.677,1.719l-4.437,6.907A1.588,1.588,0,0,1,725.161,353.947Z" transform="translate(-723.571 -343.858)" fill="#fff"/>
            </g>
            <g id="Grupo_875255" data-name="Grupo 875255" transform="translate(18.554 0)">
              <path id="Trazado_612480" data-name="Trazado 612480" d="M754.32,353.947a1.591,1.591,0,0,1-1.337-2.45l4.434-6.906a1.591,1.591,0,1,1,2.678,1.719l-4.434,6.906A1.59,1.59,0,0,1,754.32,353.947Z" transform="translate(-752.731 -343.858)" fill="#fff"/>
            </g>
          </g>
        </g>
      </g>
    </g>
  </g>
</svg>
