<svg xmlns="http://www.w3.org/2000/svg" width="136.175" height="140.203" viewBox="0 0 136.175 140.203">
  <g id="Grupo_878911" data-name="Grupo 878911" transform="translate(-253.825 -3680.206)">
    <g id="Grupo_875275" data-name="Grupo 875275" transform="translate(253.825 3680.206)">
      <g id="Grupo_875272" data-name="Grupo 875272" transform="translate(0 0)">
        <path id="Trazado_612481" data-name="Trazado 612481" d="M927.74,231.676c15.533-33.7,53.41-50.565,88.645-38.408.713.219,2.682,1,3.42,1.293.639.223,1.613.666,2.241.961l2.216,1.022c1.055.489,2.19,1.183,3.239,1.71,1.244.663,2.984,1.785,4.193,2.51.606.409,2.382,1.653,3.018,2.087a70.284,70.284,0,0,1,25.391,79.23c-.3.756-.98,2.772-1.3,3.513-.243.562-.727,1.736-.971,2.3-.332.88-1.207,2.535-1.594,3.391-.508,1.053-1.225,2.268-1.77,3.3-.456.837-1.468,2.385-1.945,3.206-.472.634-1.635,2.471-2.124,3.091-.377.479-1.141,1.5-1.519,1.986-1.187,1.516-2.744,3.347-4.078,4.733-15.817,17.171-40.631,25.344-63.5,20.591a1.965,1.965,0,0,1,.6-3.881,73.9,73.9,0,0,0,18.527-.142c.81-.115,2.644-.443,3.415-.553.646-.156,2.684-.578,3.376-.738,2.416-.611,4.795-1.357,7.151-2.162,1.219-.5,2.527-.968,3.732-1.49.746-.33,2.414-1.132,3.122-1.447a67.633,67.633,0,0,0,14.252-9.531c.989-.817,2.45-2.182,3.379-3.1.462-.409,1.156-1.193,1.594-1.645,23.078-24.127,24.3-63.089,2.6-88.593-26.831-32.129-77.137-31.4-102.676,1.951a62.428,62.428,0,0,0-9.009,16.322,1.966,1.966,0,1,1-3.627-1.51Z" transform="translate(-927.555 -189.329)" fill="#fda829"/>
      </g>
      <g id="Grupo_875273" data-name="Grupo 875273" transform="translate(8.206 12.814)">
        <ellipse id="Elipse_4838" data-name="Elipse 4838" cx="56.738" cy="56.738" rx="56.738" ry="56.738" transform="translate(0 0)" fill="#148d80"/>
      </g>
      <g id="Grupo_875274" data-name="Grupo 875274" transform="translate(26.097 41.701)">
        <g id="Grupo_875261" data-name="Grupo 875261" transform="translate(13.541 0)">
          <path id="Trazado_612482" data-name="Trazado 612482" d="M1021.921,283.844H992.006a1.576,1.576,0,1,1,0-3.152h29.915c4.243,0,8.772-3.793,10.534-8.823.707-2.019,1.869-7.1-2.6-10.673-4.458-3.561-8.99-2.971-11.5-.8a4.8,4.8,0,0,0-1.24,6.261,1.576,1.576,0,1,1-2.725,1.584,7.958,7.958,0,0,1,1.906-10.232c3.5-3.017,9.655-3.964,15.528.727,4.2,3.353,5.548,8.653,3.612,14.177C1033.21,279.245,1027.529,283.844,1021.921,283.844Z" transform="translate(-990.43 -255.478)" fill="#fff"/>
        </g>
        <g id="Grupo_875262" data-name="Grupo 875262" transform="translate(0 35.331)">
          <path id="Trazado_612483" data-name="Trazado 612483" d="M1009.969,336.283c-3.532,0-6.724-2.13-8.82-6a1.576,1.576,0,0,1,2.772-1.5c1.864,3.443,4.55,4.922,7.563,4.155,3.331-.844,6.776-4.612,6.776-9.458,0-7.66-9.311-8.8-14.862-8.8H970.527a1.576,1.576,0,1,1,0-3.152H1003.4c11.448,0,18.014,4.357,18.014,11.956,0,5.812-3.935,11.192-9.154,12.514A9.326,9.326,0,0,1,1009.969,336.283Z" transform="translate(-968.951 -311.521)" fill="#fff"/>
        </g>
        <g id="Grupo_875263" data-name="Grupo 875263" transform="translate(54.749 33.856)">
          <path id="Trazado_612484" data-name="Trazado 612484" d="M1075.788,328.47a10.474,10.474,0,0,1-5.577-1.487,6.463,6.463,0,0,1-3-4.6,1.576,1.576,0,1,1,3.117-.461,3.311,3.311,0,0,0,1.589,2.411,8.026,8.026,0,0,0,5.933.727,5.924,5.924,0,0,0,3.563-2.826,6.059,6.059,0,0,0,.143-4.855c-1.463-4.388-7.68-5.043-11.256-5.043h-12.923a1.576,1.576,0,1,1,0-3.152H1070.3c7.639,0,12.7,2.556,14.247,7.2a8.713,8.713,0,0,1-5.815,11.7A10.745,10.745,0,0,1,1075.788,328.47Z" transform="translate(-1055.797 -309.181)" fill="#fff"/>
        </g>
      </g>
    </g>
  </g>
</svg>
