<svg xmlns="http://www.w3.org/2000/svg" width="137.447" height="141.512" viewBox="0 0 137.447 141.512">
  <g id="Grupo_878912" data-name="Grupo 878912" transform="translate(-567.553 -3679.551)">
    <g id="Grupo_878848" data-name="Grupo 878848" transform="translate(567.553 3679.551)">
      <g id="Grupo_875265" data-name="Grupo 875265" transform="translate(0 0)">
        <path id="Trazado_612485" data-name="Trazado 612485" d="M1198.742,232.072c15.678-34.01,53.909-51.038,89.473-38.767.72.221,2.707,1.009,3.452,1.305.645.225,1.628.673,2.262.97l2.237,1.031c1.065.494,2.21,1.194,3.269,1.726,1.256.669,3.012,1.8,4.232,2.534.612.413,2.4,1.668,3.047,2.106a70.941,70.941,0,0,1,25.628,79.97c-.306.763-.989,2.8-1.309,3.546-.246.567-.734,1.752-.98,2.322-.335.888-1.219,2.559-1.609,3.423-.512,1.063-1.237,2.289-1.787,3.334-.46.845-1.482,2.407-1.963,3.236-.477.64-1.65,2.494-2.144,3.12-.38.484-1.152,1.518-1.534,2.005-1.2,1.53-2.769,3.378-4.116,4.777-15.965,17.332-41.01,25.581-64.1,20.783a1.984,1.984,0,0,1,.6-3.917,74.59,74.59,0,0,0,18.7-.143c.818-.116,2.669-.447,3.447-.559.652-.157,2.709-.584,3.407-.745,2.439-.617,4.84-1.369,7.218-2.183,1.231-.506,2.551-.977,3.767-1.5.753-.333,2.436-1.142,3.151-1.46a68.268,68.268,0,0,0,14.385-9.62c1-.825,2.473-2.2,3.41-3.127.466-.413,1.166-1.2,1.609-1.661,23.293-24.352,24.525-63.678,2.628-89.421-27.081-32.429-77.857-31.7-103.635,1.969A63.01,63.01,0,0,0,1202.4,233.6a1.984,1.984,0,1,1-3.661-1.524Z" transform="translate(-1198.555 -189.329)" fill="#fda829"/>
      </g>
      <g id="Grupo_875266" data-name="Grupo 875266" transform="translate(8.282 12.934)">
        <ellipse id="Elipse_4839" data-name="Elipse 4839" cx="57.268" cy="57.268" rx="57.268" ry="57.268" fill="#148d80"/>
      </g>
      <g id="Grupo_878849" data-name="Grupo 878849" transform="translate(25.447 26.846)">
        <path id="Trazado_616685" data-name="Trazado 616685" d="M209.13,909.449a10.7,10.7,0,0,1,1.409,1.569,35.28,35.28,0,0,1,4.928,13.007c.943,6.409-.513,12.078-5.276,16.7a1.3,1.3,0,0,0-.405.8c-.029,3.1-.019,6.193-.019,9.493.9-1.136,1.8-1.924,2.044-3.394.932-5.714,4.232-9.8,9.269-12.528a31.99,31.99,0,0,1,14.989-3.531,2.023,2.023,0,0,1,2.1,2.563,22,22,0,0,1-5.529,10.752c-.623.655-1.284.727-1.831.237s-.528-1.227.106-1.9a19.575,19.575,0,0,0,4.168-6.953c.1-.265.164-.538.263-.872-3.026,1.088-17.5,10.893-19.578,13.317a39.146,39.146,0,0,0,4.928-.421,48.826,48.826,0,0,0,5.572-1.69c.895-.3,1.542-.225,1.867.442.344.7.039,1.332-.869,1.768a24.181,24.181,0,0,1-10.9,2.213,14.925,14.925,0,0,1-2.4-.12,1.353,1.353,0,0,0-1.429.575,11.267,11.267,0,0,0-2.341,4.329,4.749,4.749,0,0,0-.114.546.393.393,0,0,0,.027.164c1.849.306,3.682.519,5.47.925a29.71,29.71,0,0,1,12.366,6.165c1.178.965,2.431,1.847,3.553,2.872a1.394,1.394,0,0,0,1.945.144,4.637,4.637,0,0,1,1.868-.62,3.936,3.936,0,0,1,4.088,2.707,4.213,4.213,0,0,1-1.461,4.857c-4.376,3.02-8.768,6.017-13.145,9.037a10.522,10.522,0,0,1-5.133,1.618c-6.2.608-12.395,1.273-18.6,1.834a8.6,8.6,0,0,1-3.153-.383c-3.273-.978-6.518-2.056-9.762-3.128a2.643,2.643,0,0,0-2.949.6,5.1,5.1,0,0,1-.481.424c-.805.628-1.409,1.171-1.017,2.465a2.9,2.9,0,0,1-1.512,3.268c-.988.632-2.013,1.217-3.054,1.76a3.334,3.334,0,0,1-4.538-1.268q-5.19-8.883-10.3-17.81a3.335,3.335,0,0,1,1.25-4.6c.954-.589,1.923-1.16,2.916-1.68a3.269,3.269,0,0,1,3.632.234.819.819,0,0,0,1.05.052c2.791-1.575,5.57-3.175,8.4-4.677a13.639,13.639,0,0,1,11.168-.945,1.7,1.7,0,0,0,1.5-.143,29.334,29.334,0,0,1,12.3-3.548c.21-.013.421-.045.7-.077a5.017,5.017,0,0,0-.079-.63,10.523,10.523,0,0,0-2.62-4.7,1.323,1.323,0,0,0-.939-.351c-4.57.333-9.049.014-13.249-1.995-6.338-3.032-9.86-8.213-11.243-14.965a1.938,1.938,0,0,1,1.875-2.378c7.685.166,14.892,1.72,20.451,7.578a16.584,16.584,0,0,1,4.206,9.005,3.851,3.851,0,0,0,.635,1.38,12.221,12.221,0,0,0,1.067,1.243c.022-.343.049-.567.049-.79,0-2.724.022-5.448-.02-8.171a1.822,1.822,0,0,0-.482-1.163c-4.4-4.325-5.987-9.6-5.331-15.626a34.771,34.771,0,0,1,5.358-14.513,6.229,6.229,0,0,1,1.123-1.084Zm-35.259,58.9c.48.834.935,1.613,1.38,2.4.49.867.377,1.578-.3,1.943-.645.348-1.3.089-1.775-.723-.661-1.127-1.305-2.266-1.964-3.394-.577-.989-1.006-1.094-2.025-.513-.719.411-1.44.818-2.152,1.239-.858.507-.981.97-.479,1.845,1.009,1.759,2.03,3.511,3.044,5.266q3.4,5.891,6.81,11.78c.582,1,1,1.11,2.016.533.627-.356,1.25-.72,1.874-1.08,1.244-.717,1.335-1.048.623-2.281q-2.28-3.952-4.562-7.9c-.512-.889-.429-1.562.222-1.961.675-.414,1.328-.144,1.871.785.457.783.907,1.571,1.362,2.356.758,1.307,1.517,2.614,2.32,4,.51-.447.959-.818,1.383-1.214a4.987,4.987,0,0,1,5.331-1.162c3.22,1.059,6.444,2.112,9.689,3.088a7.2,7.2,0,0,0,2.675.3c6.1-.566,12.182-1.215,18.274-1.808a8.913,8.913,0,0,0,4.407-1.511c3.83-2.681,7.7-5.306,11.552-7.954.4-.272.814-.519,1.183-.825a1.855,1.855,0,0,0,.258-2.469,1.582,1.582,0,0,0-2.2-.429c-2.834,1.494-5.677,2.974-8.5,4.487a18.7,18.7,0,0,1-7.722,2.189c-4.509.293-9.017.605-13.526.906-.861.058-1.422-.38-1.462-1.118s.421-1.209,1.314-1.273c1.547-.11,3.095-.208,4.642-.31l7.328-.489a3.3,3.3,0,0,0-2.727-3.827c-2.144-.3-4.29-.621-6.446-.782a20.145,20.145,0,0,1-9.212-2.9,35.943,35.943,0,0,0-6.491-2.877,11.185,11.185,0,0,0-9.509.932c-2.131,1.167-4.246,2.364-6.367,3.551C175.316,967.522,174.625,967.917,173.871,968.345Zm22.72-6.587c2.029,1.11,4.042,2.262,6.106,3.31a7.015,7.015,0,0,0,2.231.589c3.045.4,6.1.751,9.145,1.127a5.782,5.782,0,0,1,5.03,4.4c.137.527.184,1.078.271,1.612,2.581-.193,7.666-2.339,10.555-4.438C219,957.914,206.7,956.945,196.592,961.758Zm-14.749-26.528a18.3,18.3,0,0,0,7.107,10.177c3.737,2.551,7.944,3.311,12.621,3.189A137.062,137.062,0,0,0,181.843,935.231Zm25.452,2.334V914.9a23.208,23.208,0,0,0-1.621,3.405c-1.577,4.154-2.434,8.405-1.513,12.851A14.26,14.26,0,0,0,207.3,937.565Zm2.495.012c.256-.294.4-.443.525-.608a14.84,14.84,0,0,0,2.979-8.219c.274-4.906-1.165-9.413-3.308-13.745-.025-.052-.109-.075-.2-.131Zm4.865,8.657a165.714,165.714,0,0,1,17.3-11.891,13.778,13.778,0,0,0-2.006.254,23.58,23.58,0,0,0-10.508,4.45A13.5,13.5,0,0,0,214.655,946.234Zm-29.338-11.886a153.52,153.52,0,0,1,17.417,12.077,13.043,13.043,0,0,0-2.414-4.839C196.479,936.8,191.086,935.189,185.317,934.348Z" transform="translate(-163.824 -909.449)" fill="#fff"/>
      </g>
    </g>
  </g>
</svg>
