<svg xmlns="http://www.w3.org/2000/svg" width="137.447" height="141.512" viewBox="0 0 137.447 141.512">
  <g id="Grupo_878913" data-name="Grupo 878913" transform="translate(-882.553 -3679.551)">
    <g id="Grupo_878844" data-name="Grupo 878844" transform="translate(882.553 3679.551)">
      <g id="Grupo_875265" data-name="Grupo 875265" transform="translate(0 0)">
        <path id="Trazado_612485" data-name="Trazado 612485" d="M1198.742,232.072c15.678-34.01,53.909-51.038,89.473-38.767.72.221,2.707,1.009,3.452,1.305.645.225,1.628.673,2.262.97l2.237,1.031c1.065.494,2.21,1.194,3.269,1.726,1.256.669,3.012,1.8,4.232,2.534.612.413,2.4,1.668,3.047,2.106a70.941,70.941,0,0,1,25.628,79.97c-.306.763-.989,2.8-1.309,3.546-.246.567-.734,1.752-.98,2.322-.335.888-1.219,2.559-1.609,3.423-.512,1.063-1.237,2.289-1.787,3.334-.46.845-1.482,2.407-1.963,3.236-.477.64-1.65,2.494-2.144,3.12-.38.484-1.152,1.518-1.534,2.005-1.2,1.53-2.769,3.378-4.116,4.777-15.965,17.332-41.01,25.581-64.1,20.783a1.984,1.984,0,0,1,.6-3.917,74.59,74.59,0,0,0,18.7-.143c.818-.116,2.669-.447,3.447-.559.652-.157,2.709-.584,3.407-.745,2.439-.617,4.84-1.369,7.218-2.183,1.231-.506,2.551-.977,3.767-1.5.753-.333,2.436-1.142,3.151-1.46a68.268,68.268,0,0,0,14.385-9.62c1-.825,2.473-2.2,3.41-3.127.466-.413,1.166-1.2,1.609-1.661,23.293-24.352,24.525-63.678,2.628-89.421-27.081-32.429-77.857-31.7-103.635,1.969A63.01,63.01,0,0,0,1202.4,233.6a1.984,1.984,0,1,1-3.661-1.524Z" transform="translate(-1198.555 -189.329)" fill="#fda829"/>
      </g>
      <g id="Grupo_875266" data-name="Grupo 875266" transform="translate(8.282 12.934)">
        <ellipse id="Elipse_4839" data-name="Elipse 4839" cx="57.268" cy="57.268" rx="57.268" ry="57.268" fill="#148d80"/>
      </g>
      <g id="Grupo_878850" data-name="Grupo 878850" transform="translate(26.447 28.289)">
        <path id="Trazado_616678" data-name="Trazado 616678" d="M150,893.079a43.674,43.674,0,0,1,.889-4.279,21.51,21.51,0,0,1,13.293-14.254,1.048,1.048,0,0,0,.811-1.179c-.031-4-.015-8.01-.015-12.016v-.923c-.381,0-.7.006-1.023,0A2.892,2.892,0,0,1,161,857.576c-.048-1.158-.047-2.321,0-3.48a2.9,2.9,0,0,1,3.111-2.867c2.407-.031,4.814-.009,7.221-.009,2.656,0,5.313-.009,7.969,0,2.243.01,3.359,1.14,3.368,3.377q0,1.243,0,2.486c-.009,2.19-1.124,3.316-3.308,3.343-.189,0-.378,0-.688,0,0,1.093.022,2.131-.007,3.169a1.237,1.237,0,0,1-1.242,1.366,1.178,1.178,0,0,1-1.226-1.272c-.028-1.045-.007-2.091-.007-3.2h-8.721v.912q0,6.34,0,12.679a2.2,2.2,0,0,1-1.825,2.568,19.309,19.309,0,1,0,24.976,22.839,2.585,2.585,0,0,0,.03-.347l-2.251-.526c-.069.188-.158.382-.213.585a16.908,16.908,0,0,1-32.962-1.12A16.5,16.5,0,0,1,157.479,886a2.444,2.444,0,0,1,2.318-1.153c3.763.009,7.526,0,11.289,0,3.127,0,6.254-.011,9.38.01a1.353,1.353,0,0,0,1.179-.563,10.438,10.438,0,0,1,1.791-1.7,19.03,19.03,0,0,1,2.136-1.2,19.24,19.24,0,0,0-7.038-4.556c-.31-.117-.627-.214-.936-.334a1.981,1.981,0,0,1-1.4-1.946c-.013-1.6-.02-3.2,0-4.806a1.228,1.228,0,0,1,1.238-1.358,1.261,1.261,0,0,1,1.234,1.384c.028,1.27.031,2.542,0,3.811a.787.787,0,0,0,.628.889,21.753,21.753,0,0,1,9.057,6.223,1.53,1.53,0,0,0,.7.529c3.188.677,5.291,2.77,6.95,5.373a13.152,13.152,0,0,1,1.761,9.859,1.034,1.034,0,0,0,.337,1.079c.929.906,1.831,1.839,2.805,2.823,1.058-1.057,2.087-2.052,3.064-3.1a1.14,1.14,0,0,0,.1-.836,13.36,13.36,0,0,1,5.317-13.66,7.485,7.485,0,0,1,10.053.638,7.567,7.567,0,0,1,.994,10.087c-.55.779-1.265.994-1.9.568s-.7-1.17-.155-1.961a4.881,4.881,0,0,0,.335-5.6,5.144,5.144,0,0,0-4.9-2.829,5.233,5.233,0,0,0-2.547.84,10.879,10.879,0,0,0-4.96,9.972,1.745,1.745,0,0,0,.092.317c.217-.188.4-.329.564-.491,1.725-1.716,3.438-3.443,5.172-5.151.821-.809,2.044-.6,2.194.414a1.894,1.894,0,0,1-.505,1.369c-1.62,1.7-3.307,3.338-4.969,5-.193.193-.377.4-.565.594l.041.263c1.12-.1,2.252-.144,3.358-.334a11.8,11.8,0,0,0,2.2-.719c.945-.364,1.611-.228,1.941.454.352.727.024,1.407-.906,1.822a13.35,13.35,0,0,1-8.265.937,1.163,1.163,0,0,0-1.23.388c-.9.939-1.861,1.817-2.734,2.776a2.006,2.006,0,0,0-.514,1.2c-.044,2.9-.023,5.791-.023,8.807h16.378a5.768,5.768,0,0,1,.829.017,1.153,1.153,0,0,1,1.091,1.155,1.167,1.167,0,0,1-1.04,1.285,4.649,4.649,0,0,1-.91.028q-18.179,0-36.357.016a4.62,4.62,0,0,0-1.751.353,21.91,21.91,0,0,1-30.2-17.053c-.057-.4-.132-.806-.2-1.208Zm7.658-.787a14.7,14.7,0,0,0,.131,5.925,14.436,14.436,0,0,0,28.05.178.942.942,0,0,0-.5-1.249,12.174,12.174,0,0,1-4.265-4.208,1.177,1.177,0,0,0-1.172-.658q-10.706.026-21.412.012Zm42,19.819c0-3.134,0-6.192-.011-9.251a.808.808,0,0,0-.24-.494c-1.066-1.083-2.136-2.163-3.233-3.214a1.009,1.009,0,0,0-.721-.227c-.737.08-1.465.231-2.241.362a22.051,22.051,0,0,1-7.931,12.824ZM195.5,894.935a11.124,11.124,0,0,0-4.634-10.264,5.317,5.317,0,0,0-7.4,7.414,10.85,10.85,0,0,0,6.783,4.409,28.425,28.425,0,0,0,3.273.294l.052-.265q-2.287-2.279-4.574-4.557a16.326,16.326,0,0,1-1.268-1.307,1.225,1.225,0,0,1,1.727-1.721,6.646,6.646,0,0,1,.6.57C191.822,891.26,193.578,893.013,195.5,894.935Zm-23.6-36.992c2.459,0,4.919-.021,7.378.013.7.01.938-.246.908-.917a22.9,22.9,0,0,1,0-2.4c.044-.744-.277-1-.977-.939-.357.03-.718.005-1.077.005q-6.8,0-13.6,0c-1.022,0-1.06.045-1.063,1.081q0,1.034,0,2.069c0,1.084,0,1.085,1.13,1.085Zm8.143,29.482a1.319,1.319,0,0,0-.252-.076q-9.869-.01-19.737,0a.821.821,0,0,0-.617.278c-.387.652-.709,1.344-1.1,2.111h21.536Z" transform="translate(-150 -838.61)" fill="#fff"/>
        <path id="Trazado_616679" data-name="Trazado 616679" d="M292.05,862.974c-1.378,1.457-2.71,2.961-4.155,4.348a1.874,1.874,0,0,1-2.571-.2c-.769-.715-1.5-1.473-2.241-2.215q-6.222-6.209-12.441-12.421c-.2-.2-.366-.413-.571-.646a18.117,18.117,0,0,1-15.312,1.543,17.468,17.468,0,0,1-9.464-7.667,18.007,18.007,0,1,1,30.886.024l3.442,3.417c.2.195.4.385.586.587a1.247,1.247,0,0,1,.1,1.9,1.222,1.222,0,0,1-1.838-.13c-1.049-1.022-2.076-2.067-3.115-3.1-.194-.193-.4-.377-.545-.517l-2.48,2.574,14.336,14.317,2.567-2.529-5.944-5.927c-.2-.2-.4-.383-.579-.593a1.249,1.249,0,0,1,.008-1.722,1.224,1.224,0,0,1,1.721-.023c.731.673,1.42,1.394,2.125,2.1,1.35,1.347,2.711,2.683,4.044,4.048.513.525.96,1.116,1.437,1.676Zm-31.293-11.064a15.489,15.489,0,1,0-15.54-15.44A15.484,15.484,0,0,0,260.757,851.909Z" transform="translate(-207.05 -818.449)" fill="#fff"/>
        <path id="Trazado_616680" data-name="Trazado 616680" d="M214.936,967.079a1.219,1.219,0,1,1,.062-2.438,1.219,1.219,0,1,1-.062,2.438Z" transform="translate(-189.226 -908.409)" fill="#fff"/>
        <path id="Trazado_616681" data-name="Trazado 616681" d="M193.788,973.542a1.219,1.219,0,1,1,.062-2.438,1.219,1.219,0,1,1-.062,2.438Z" transform="translate(-176.212 -912.386)" fill="#fff"/>
        <path id="Trazado_616682" data-name="Trazado 616682" d="M208.894,987.762a1.219,1.219,0,1,1,.062-2.438,1.219,1.219,0,1,1-.062,2.438Z" transform="translate(-185.508 -921.136)" fill="#fff"/>
        <path id="Trazado_616683" data-name="Trazado 616683" d="M281.639,844.176a13.166,13.166,0,1,1-13.24-13.1A13.138,13.138,0,0,1,281.639,844.176Zm-13.13-10.614a10.642,10.642,0,1,0,10.641,10.661A10.634,10.634,0,0,0,268.509,833.562Z" transform="translate(-214.801 -826.22)" fill="#fff"/>
      </g>
    </g>
  </g>
</svg>
